# xmcd CD database file
#
# Track frame offsets:
#	150
#	12923
#	24535
#
# Disc length: 528 seconds
#
# Revision: 0
# Processed by: cddbd v1.5.1PL0 Copyright (c) Steve Scherf et al.
# Submitted via: CDex 1.60beta1
#
DISCID=18020e03
DTITLE=myheadswims - 日曜貴族
DYEAR=1900
DGENRE=Punk Rock
TTITLE0=ヤングチーム(at a Hooter)
TTITLE1=ダンスオブダンス
TTITLE2=日曜貴族
EXTD=
EXTT0=
EXTT1=
EXTT2=
PLAYORDER=
